PathFileType	4	(X/Y/Z)	s01c0103.trc
DataRate	CameraRate	NumFrames	NumMarkers	Units	OrigDataRate	OrigDataStartFrame	OrigNumFrames
200	200	4	48	mm	200	1500	2000
Frame#	Time	racr			lacr			c7			jug			rlel			rdr			llel			ldr			s2			lic			ric			lasi			rasi			rpsi			lpsi			rgt			lgt			rth1			rth2			rth3			rth4			rlfc			rsh1			rsh2			rsh3			rsh4			rlmal			rmmal			rcal			rtoe			rmt5			lth1			lth2			lth4			lth3			llfc			lsh1			lsh2			lsh3			lsh4			llmal			lmmal			lcal			ltoe			lmt5			SBIKE			LBIKE			RBIKE			
		X1	Y1	Z1	X2	Y2	Z2	X3	Y3	Z3	X4	Y4	Z4	X5	Y5	Z5	X6	Y6	Z6	X7	Y7	Z7	X8	Y8	Z8	X9	Y9	Z9	X10	Y10	Z10	X11	Y11	Z11	X12	Y12	Z12	X13	Y13	Z13	X14	Y14	Z14	X15	Y15	Z15	X16	Y16	Z16	X17	Y17	Z17	X18	Y18	Z18	X19	Y19	Z19	X20	Y20	Z20	X21	Y21	Z21	X22	Y22	Z22	X23	Y23	Z23	X24	Y24	Z24	X25	Y25	Z25	X26	Y26	Z26	X27	Y27	Z27	X28	Y28	Z28	X29	Y29	Z29	X30	Y30	Z30	X31	Y31	Z31	X32	Y32	Z32	X33	Y33	Z33	X34	Y34	Z34	X35	Y35	Z35	X36	Y36	Z36	X37	Y37	Z37	X38	Y38	Z38	X39	Y39	Z39	X40	Y40	Z40	X41	Y41	Z41	X42	Y42	Z42	X43	Y43	Z43	X44	Y44	Z44	X45	Y45	Z45	X46	Y46	Z46	X47	Y47	Z47	X48	Y48	Z48	
1500	7.5000	494.781929	1325.650831	-127.820169	516.635517	1288.254617	-443.057659	463.823659	1389.426880	-284.619370	451.450494	1222.912489	-281.491157	565.954958	1065.279878	-26.824266	729.749363	861.080432	-85.323582	542.834673	1027.679534	-563.262356	711.015304	863.336207	-461.290884	0.000000	0.000000	-0.000000	97.316133	1165.708988	-451.090325	99.571364	1171.014898	-116.303864	105.268779	1113.271663	-416.228465	128.834591	1124.266091	-144.298942	-33.821695	1194.421015	-214.533350	-41.964014	1194.965889	-321.648959	53.865799	1044.560124	-83.633787	60.963676	1044.723625	-466.302211	123.685624	929.987896	-67.079997	174.383771	863.753944	-71.590162	223.799878	788.875619	-85.252905	220.405788	895.304299	-83.773594	268.975543	680.829986	-104.996055	249.695283	566.689921	-70.101160	248.036783	481.901529	-74.651355	237.270631	393.952692	-84.746725	294.566067	480.851584	-114.271648	211.543964	271.212384	-105.281227	254.181920	289.494128	-180.611983	169.211315	248.500348	-157.992598	436.494939	205.876571	-144.413572	330.406291	183.245526	-74.539019	159.302070	975.501530	-468.443693	247.456927	962.630164	-475.914949	257.382393	1014.998462	-463.487237	329.993993	940.043774	-464.848925	420.146230	860.149144	-442.871226	321.704184	806.425830	-467.455015	260.362435	746.635332	-454.620646	197.619832	690.088689	-437.025451	301.777792	710.387850	-425.511786	108.025697	611.473545	-415.844538	138.282037	601.629162	-335.084084	49.285326	610.386293	-368.938641	243.053943	413.183797	-384.393579	149.750980	470.155012	-445.938092	-230.178616	890.690178	-256.820998	-23.684911	80.287498	-458.146352	-24.061840	80.023859	-57.820299	
1501	7.5050	495.572666	1325.525194	-128.819475	515.793866	1290.691614	-443.370649	463.368218	1390.438899	-284.626075	451.209428	1223.908851	-282.173857	567.185873	1065.398205	-27.854044	730.114083	860.208064	-85.646678	543.236593	1029.896553	-561.595227	710.945611	864.582684	-460.716049	0.000000	0.000000	-0.000000	96.629168	1166.757374	-449.889602	101.218054	1169.609231	-115.247788	104.645081	1114.052622	-414.813028	129.871038	1122.973732	-143.040836	-33.414541	1193.695653	-211.308851	-42.267568	1194.833054	-318.474489	54.478058	1043.011721	-81.871284	59.968907	1046.354895	-464.989659	121.738948	928.502807	-65.346576	170.804996	861.160365	-69.753852	218.652489	785.046630	-83.030158	217.091648	891.638363	-82.152200	262.163323	676.530808	-103.113303	242.098217	562.434845	-68.632216	240.314176	477.722018	-73.375203	229.619648	389.751668	-83.781699	287.575312	476.641857	-112.142432	204.854519	267.296228	-105.158601	247.080581	284.866692	-179.857676	162.450648	245.723828	-157.808898	428.892939	197.611805	-144.420848	322.534461	177.244668	-74.352422	159.633247	978.506826	-467.859612	247.677397	968.141992	-476.190335	256.630511	1020.427510	-463.371872	330.855226	947.155360	-465.140261	423.762419	870.260345	-443.718873	325.940292	815.729213	-467.500882	265.116492	755.547295	-454.548414	202.981421	698.441596	-437.181015	307.089680	719.830291	-426.465085	114.579111	617.803511	-415.239327	145.376505	608.539996	-334.641162	55.674611	615.657047	-368.284418	251.958689	420.816765	-384.246953	157.742717	476.626729	-445.688258	-230.209250	890.698547	-256.695646	-23.707415	80.349958	-458.127848	-24.067912	80.037544	-57.819020	
1502	7.5100	496.253972	1325.355776	-129.789613	514.935523	1293.102953	-443.611260	462.892785	1391.421754	-284.619328	450.945767	1224.880722	-282.864458	568.608539	1065.513608	-28.870848	730.756520	859.688320	-85.724416	540.898762	1031.560538	-561.727797	710.694878	865.988621	-460.112695	0.000000	0.000000	-0.000000	94.824754	1167.668633	-447.771457	102.765937	1168.119982	-114.175452	104.027155	1115.141077	-413.646698	130.801295	1121.860835	-141.905273	-33.155109	1193.101279	-208.195841	-42.681153	1194.853703	-315.370571	55.108098	1041.768775	-80.242046	58.851067	1047.676013	-463.574514	119.905062	927.560387	-63.600073	167.670699	859.163540	-67.941145	213.972652	782.180751	-80.772608	214.527516	888.776714	-80.359864	255.716573	673.339604	-101.242658	234.664881	558.779877	-67.031296	232.758226	474.081397	-72.094767	222.106213	386.213208	-82.829499	280.671251	472.993950	-110.082624	197.917278	264.197553	-104.913750	239.892498	280.953816	-179.054543	155.893276	244.144768	-157.851325	420.974900	189.829025	-144.351259	314.220069	171.700891	-74.322792	159.529201	981.573734	-466.899007	247.660090	972.702332	-475.476383	255.629256	1025.591305	-462.938234	331.455653	953.973576	-465.298114	426.821684	880.179351	-444.615898	329.735759	824.941262	-467.630418	269.608843	764.064025	-454.416898	208.273449	706.318555	-437.018486	312.144808	728.277044	-426.648210	121.088793	623.568250	-414.650757	152.514345	614.661479	-334.196553	62.057760	620.120168	-367.606965	261.357367	428.233495	-384.578852	166.247187	482.793622	-445.424325	-230.283562	890.717568	-256.648093	-23.726904	80.349430	-458.122625	-24.081249	80.049914	-57.817880	
1503	7.5150	496.838080	1325.153358	-130.714031	514.054123	1295.461260	-443.782461	462.417964	1392.342705	-284.601457	450.662649	1225.815796	-283.560473	569.953305	1065.604394	-29.696563	731.649983	859.292211	-86.159480	538.969144	1032.852845	-561.072785	710.368380	867.613362	-459.372984	0.000000	0.000000	-0.000000	93.678766	1169.088125	-446.619369	104.226377	1166.647675	-113.230448	103.307856	1116.381453	-412.598334	131.567121	1120.977407	-140.871852	-32.983902	1192.624273	-205.201467	-43.197198	1195.050585	-312.382573	55.634507	1041.000747	-78.631093	57.828377	1048.946466	-462.147479	118.276378	927.003849	-61.976286	164.770791	857.783096	-66.055068	209.901303	779.943842	-78.514772	212.188063	886.636348	-78.626740	249.768045	670.779658	-99.300224	227.371720	555.717639	-65.428704	225.617896	471.162799	-70.654664	214.803317	383.303372	-81.924823	273.716116	469.827075	-108.258018	191.731913	261.936687	-103.275686	232.684834	277.761560	-178.210041	148.869686	242.852808	-157.331047	412.914282	182.397764	-144.296867	305.669558	166.815640	-74.240032	159.616271	984.701946	-466.097840	247.604460	977.561933	-474.917716	254.623427	1030.378680	-462.512461	331.776521	960.481692	-465.198611	429.276989	889.934345	-445.563798	333.277237	833.869342	-467.601352	273.916299	772.323528	-454.356513	213.486399	713.496303	-436.356806	317.153502	736.694013	-427.354480	127.559917	628.480680	-414.144669	159.097160	620.121222	-332.854690	68.417542	623.725867	-366.916900	270.886435	435.263844	-384.686364	174.898407	488.554971	-445.194187	-230.353950	890.711480	-256.565554	-23.750478	80.381393	-458.128433	-24.096201	80.058285	-57.821677	
